<?xml version="1.0" encoding="utf-8"?>
<!-- Generator: Adobe Illustrator 18.1.1, SVG Export Plug-In . SVG Version: 6.00 Build 0)  -->
<!DOCTYPE svg PUBLIC "-//W3C//DTD SVG 1.1//EN" "http://www.w3.org/Graphics/SVG/1.1/DTD/svg11.dtd">
<svg version="1.1" id="Layer_1" xmlns="http://www.w3.org/2000/svg" xmlns:xlink="http://www.w3.org/1999/xlink" x="0px" y="0px"
	 viewBox="0 0 40 40" enable-background="new 0 0 40 40" xml:space="preserve" width="40px" height="40px">
<g>
	<path fill="#768692" d="M38.2,12.2c-1-2.4-2.5-4.5-4.3-6.4c-1.8-1.9-4-3.3-6.4-4.3c-2.4-1-5-1.5-7.7-1.5s-5.3,0.5-7.8,1.6
		C9.9,2.6,7.7,4,5.9,5.9s-3.3,4-4.3,6.4C0.5,14.7,0,17.3,0,20s0.5,5.3,1.6,7.8c1,2.4,2.5,4.5,4.3,6.4c1.8,1.8,4,3.3,6.4,4.3
		c2.5,1,5.1,1.6,7.8,1.6s5.3-0.5,7.8-1.6c2.4-1,4.5-2.5,6.4-4.3c1.8-1.8,3.3-4,4.3-6.4c1-2.5,1.6-5.1,1.6-7.8S39.3,14.7,38.2,12.2z
		 M38.3,20c0,5-1.9,9.6-5.4,13.1s-8.2,5.4-13,5.4s-9.6-1.9-13-5.4S1.5,24.9,1.5,20s1.9-9.6,5.4-13.1s8.1-5.4,13-5.4s9.6,1.9,13,5.4
		S38.3,15,38.3,20z"/>
	<path fill="#768692" d="M31.3,20.1c0-0.1,0-0.1,0-0.2l0,0l-0.1-0.1c0-0.1,0-0.1-0.1-0.2c0,0,0-0.1-0.1-0.1c0-0.1-0.1-0.1-0.1-0.1
		l-9.7-8.9c-0.1-0.1-0.3-0.2-0.4-0.2c-0.2,0-0.4,0.1-0.6,0.3c-0.2,0.2-0.2,0.3-0.2,0.5s0.1,0.4,0.3,0.5l8.3,7.6H8.2
		c-0.4,0-0.7,0.3-0.7,0.7c0,0.4,0.3,0.7,0.7,0.7h20.7l-8.3,7.8c-0.3,0.3-0.3,0.7,0,1c0.1,0.1,0.3,0.2,0.5,0.2c0.2,0,0.3-0.1,0.4-0.1
		l0.1-0.1l0,0l9.7-9C31.3,20.3,31.3,20.3,31.3,20.1L31.3,20.1C31.3,20.2,31.3,20.1,31.3,20.1z"/>
</g>
</svg>


