<?xml version="1.0" encoding="utf-8"?>
<!-- Generator: Adobe Illustrator 18.1.1, SVG Export Plug-In . SVG Version: 6.00 Build 0)  -->
<!DOCTYPE svg PUBLIC "-//W3C//DTD SVG 1.1//EN" "http://www.w3.org/Graphics/SVG/1.1/DTD/svg11.dtd">
<svg version="1.1" id="Layer_1" xmlns:sketch="http://www.bohemiancoding.com/sketch/ns"
	 xmlns="http://www.w3.org/2000/svg" xmlns:xlink="http://www.w3.org/1999/xlink" x="0px" y="0px" viewBox="65 -80 131 161"
	 enable-background="new 65 -80 131 161" xml:space="preserve">
<g id="Layer-1">
	<g id="svg_1">
		<path id="Shape" fill="#009CDE" d="M173.8,5c0.2,24.2,21.2,32.3,21.5,32.4c-0.2,0.6-3.4,11.5-11.1,22.8
			c-6.7,9.7-13.6,19.5-24.5,19.7c-10.7,0.2-14.2-6.4-26.4-6.4s-16.1,6.2-26.2,6.6c-10.5,0.4-18.5-10.5-25.3-20.3
			C68.1,39.9,57.6,3.6,71.7-20.9c7-12.2,19.5-19.9,33.1-20.1c10.3-0.2,20.1,7,26.4,7c6.3,0,18.2-8.6,30.6-7.3
			c5.2,0.2,19.9,2.1,29.3,15.9C190.3-25,173.6-15.2,173.8,5 M153.7-54.5c5.6-6.7,9.3-16.1,8.3-25.5c-8.1,0.3-17.8,5.4-23.6,12.1
			c-5.2,6-9.7,15.6-8.5,24.7C138.9-42.4,148.1-47.7,153.7-54.5"/>
	</g>
</g>
</svg>
