<?xml version="1.0" encoding="UTF-8" standalone="no"?>
<svg width="40px" height="24px" viewBox="0 0 40 24" version="1.1" xmlns="http://www.w3.org/2000/svg" xmlns:xlink="http://www.w3.org/1999/xlink" xmlns:sketch="http://www.bohemiancoding.com/sketch/ns">
    <!-- Generator: Sketch 3.3.2 (12043) - http://www.bohemiancoding.com/sketch -->
    <title>logo_blue</title>
    <desc>Created with Sketch.</desc>
    <defs></defs>
    <g id="Page-1" stroke="none" stroke-width="1" fill="none" fill-rule="evenodd" sketch:type="MSPage">
        <g id="logo_blue-+-logo_blue" sketch:type="MSLayerGroup" fill="#FFFFFF">
            <g id="logo_blue" sketch:type="MSShapeGroup">
                <g id="Group">
                    <path d="M4.4,18.5 L3.2,18.2 C3,18.2 2.9,18.1 2.8,18 C2.7,17.9 2.7,17.8 2.7,17.7 C2.7,17.6 2.8,17.4 2.9,17.4 C3,17.3 3.2,17.3 3.4,17.3 C3.9,17.3 4.2,17.5 4.3,18 L6.4,18 C6.4,17.5 6.2,17.1 6,16.8 C5.8,16.4 5.5,16.2 5.1,16 C4.5,15.7 3.9,15.6 3.2,15.6 C2.3,15.6 1.6,15.8 1.1,16.2 C0.6,16.6 0.3,17.2 0.3,17.9 C0.3,18.4 0.5,18.9 0.8,19.2 C1.1,19.5 1.7,19.8 2.4,20 L3.6,20.3 C4,20.4 4.1,20.5 4.1,20.7 C4.1,21 3.8,21.1 3.3,21.1 C2.6,21.1 2.2,20.8 2.1,20.3 L0,20.3 C0.1,20.8 0.2,21.2 0.4,21.5 C0.6,21.8 0.9,22.1 1.2,22.3 C1.8,22.8 2.6,23 3.4,23 L3.4,23 C4.3,23 5,22.8 5.5,22.4 C6,22 6.4,21.4 6.4,20.7 C6.4,20.1 6.2,19.6 5.9,19.3 C5.6,18.9 5,18.7 4.4,18.5 L4.4,18.5 Z" id="Shape"></path>
                    <path d="M6.8,17.6 L9,17.6 L9,22.8 L11.1,22.8 L11.1,17.6 L13.2,17.6 L13.2,15.7 L6.8,15.7 L6.8,17.6 Z" id="Shape"></path>
                    <path d="M18.7,19.5 C18.7,20 18.6,20.4 18.4,20.6 C18.2,20.9 17.9,21 17.4,21 C16.9,21 16.7,20.9 16.4,20.6 C16.2,20.3 16.1,20 16.1,19.5 L16.1,15.8 L14,15.8 L14,19.5 C14,20.7 14.3,21.5 14.9,22.2 C15.5,22.8 16.3,23.1 17.4,23.1 C18.5,23.1 19.3,22.8 19.9,22.2 C20.5,21.6 20.8,20.7 20.8,19.5 L20.8,15.8 L18.7,15.8 L18.7,19.5 L18.7,19.5 Z" id="Shape"></path>
                    <path d="M24.8,15.7 L21.8,15.7 L21.8,22.8 L24.8,22.8 C26,22.8 26.9,22.5 27.6,21.8 C28.3,21.2 28.7,20.3 28.7,19.2 C28.7,18.1 28.3,17.3 27.6,16.6 C26.9,16.1 26,15.7 24.8,15.7 L24.8,15.7 Z M26,20.5 C25.7,20.8 25.3,21 24.8,21 L23.9,21 L23.9,17.6 L24.8,17.6 C25.3,17.6 25.7,17.8 26,18.1 C26.3,18.4 26.5,18.8 26.5,19.3 C26.5,19.8 26.4,20.2 26,20.5 L26,20.5 Z" id="Shape"></path>
                    <rect id="Rectangle-path" x="29.4" y="15.7" width="2.1" height="7.1"></rect>
                    <path d="M38.9,16.6 C38.2,15.9 37.3,15.5 36.1,15.5 C35,15.5 34.1,15.8 33.4,16.6 C32.7,17.3 32.3,18.2 32.3,19.3 C32.3,20.4 32.7,21.2 33.4,22 C34.1,22.7 35,23.1 36.1,23.1 C37.2,23.1 38.1,22.8 38.9,22 C39.6,21.3 40,20.4 40,19.3 C40,18.2 39.6,17.3 38.9,16.6 L38.9,16.6 Z M37.4,20.5 C37.1,20.8 36.7,21 36.2,21 C35.7,21 35.3,20.8 35,20.5 C34.7,20.2 34.5,19.8 34.5,19.3 C34.5,18.8 34.7,18.4 35,18.1 C35.3,17.8 35.7,17.6 36.2,17.6 C36.7,17.6 37.1,17.8 37.4,18.1 C37.7,18.4 37.9,18.8 37.9,19.3 C37.9,19.8 37.7,20.2 37.4,20.5 L37.4,20.5 Z" id="Shape"></path>
                    <path d="M8.2,14.2 L8.2,7.1 L6.6,7.1 L4.3,10.4 L1.9,7.1 L0.3,7.1 L0.3,14.2 L2.4,14.2 L2.4,11 L3.7,13 L4.8,13 L6.1,11 L6.1,14.2 L8.2,14.2 Z" id="Shape"></path>
                    <path d="M12.8,6.9 C11.7,6.9 10.8,7.2 10.1,8 C9.3,8.7 9,9.6 9,10.6 C9,11.6 9.4,12.5 10.1,13.3 C10.8,14 11.7,14.4 12.8,14.4 C13.9,14.4 14.8,14.1 15.6,13.3 C16.3,12.6 16.7,11.7 16.7,10.6 C16.7,9.5 16.3,8.7 15.6,7.9 C14.8,7.3 13.9,6.9 12.8,6.9 L12.8,6.9 Z M14,11.9 C13.7,12.2 13.3,12.4 12.8,12.4 C12.3,12.4 11.9,12.2 11.6,11.9 C11.3,11.6 11.1,11.2 11.1,10.7 C11.1,10.2 11.3,9.8 11.6,9.5 C11.9,9.2 12.3,9 12.8,9 C13.3,9 13.7,9.2 14,9.5 C14.3,9.8 14.5,10.2 14.5,10.7 C14.5,11.2 14.3,11.5 14,11.9 L14,11.9 Z" id="Shape"></path>
                    <path d="M23.8,12.2 C23.8,11.8 23.7,11.5 23.5,11.1 C23.3,10.8 23,10.6 22.5,10.5 C22.8,10.4 23,10.2 23.2,9.9 C23.4,9.6 23.5,9.3 23.5,9 C23.5,8.4 23.3,8 22.8,7.6 C22.4,7.3 21.8,7.1 21,7.1 L21,7.1 L17.4,7.1 L17.4,14.2 L21.3,14.2 C22.1,14.2 22.7,14 23.2,13.7 C23.6,13.3 23.8,12.8 23.8,12.2 L23.8,12.2 Z M19.5,8.7 L20.6,8.7 C21.2,8.7 21.4,8.9 21.4,9.2 C21.4,9.4 21.3,9.5 21.2,9.6 C21.1,9.7 20.9,9.7 20.6,9.7 L19.5,9.7 L19.5,8.7 L19.5,8.7 Z M20.8,12.5 L19.4,12.5 L19.4,11.3 L20.8,11.3 L20.8,11.3 C21.4,11.3 21.7,11.5 21.7,11.8 C21.7,12.3 21.4,12.5 20.8,12.5 L20.8,12.5 Z" id="Shape"></path>
                    <rect id="Rectangle-path" x="24.7" y="7.1" width="2.1" height="7.1"></rect>
                    <path d="M28,7.1 L28,14.2 L33.5,14.2 L33.5,12.4 L30.1,12.4 L30.1,7.1 L28,7.1 Z" id="Shape"></path>
                    <path d="M39.8,12.4 L36.4,12.4 L36.4,11.5 L39.3,11.5 L39.3,9.8 L36.4,9.8 L36.4,8.8 L39.8,8.8 L39.8,7.1 L34.3,7.1 L34.3,14.2 L39.8,14.2 L39.8,12.4 Z" id="Shape"></path>
                    <path d="M21.0377053,4.94063546 L21.0258425,4.94063546 C20.7491853,5.28910493 20.4725281,5.48738299 20.027038,5.48738299 C19.4665211,5.48738299 19.0701768,5.17534924 19.0701768,4.60339328 C19.0701768,3.57959211 20.2130296,3.5014248 20.9722482,3.5014248 L21.2542013,3.5014248 C21.2794097,3.41690242 21.2794097,3.32687231 21.2794097,3.23599486 C21.2794097,2.92396111 20.9411083,2.83393101 20.6593671,2.83393101 C20.3024242,2.83393101 19.9607334,2.92396111 19.6412854,3.07330517 L19.755253,2.43059614 C20.0986384,2.31048539 20.448167,2.24375719 20.808923,2.24375719 C21.4298129,2.24375719 22.0121488,2.47275141 22.0121488,3.20040649 C22.0121488,3.6164515 21.7056228,4.83196383 21.6340224,5.41620625 L20.9536066,5.41620625 L21.0377053,4.94063546 Z M20.2481943,4.89890386 C20.8517137,4.89890386 21.0377053,4.4837062 21.1637475,3.98440983 L20.8817944,3.98440983 C20.4896868,3.98440983 19.8408345,4.05050252 19.8408345,4.57373631 C19.8408345,4.78938489 20.0458913,4.89890386 20.2481943,4.89890386 Z M0.129007845,2.31266729 L0.711343747,2.31266729 L0.850096026,1.67567782 L1.71692706,1.39224187 L1.51907266,2.31266729 L2.24016085,2.31266729 L2.11433054,2.90241744 L1.39091216,2.90241744 L1.09688443,4.25710572 C1.0782429,4.32976531 1.06087239,4.43737777 1.06087239,4.55897137 C1.06087239,4.74517481 1.18733821,4.85935417 1.36866943,4.85935417 C1.51208209,4.85935417 1.65718944,4.82884985 1.75865866,4.7886011 L1.6211774,5.41224493 C1.48136594,5.44338475 1.32545498,5.48448085 1.18733821,5.48448085 C0.640378841,5.48448085 0.254202649,5.27052695 0.254202649,4.67293889 C0.254202649,4.43271739 0.302712988,4.19779177 0.356519216,3.95079153 L0.5853016,2.90241744 L0,2.90241744 L0.129007845,2.31266729 Z M2.57187412,2.31254019 L3.37684918,2.31254019 L2.71676963,5.41232966 L1.90946438,5.41232966 L2.57187412,2.31254019 Z M2.86759654,0.976493432 L3.67278343,0.976493432 L3.50522151,1.7475748 L2.69770443,1.7475748 L2.86759654,0.976493432 Z M5.81575413,3.02333316 C5.65814849,2.9216521 5.44673662,2.8667867 5.2243093,2.8667867 C4.58032925,2.8667867 4.21830231,3.46945881 4.21830231,4.05264206 C4.21830231,4.45576509 4.35260605,4.85952363 4.90613231,4.85952363 C5.10356304,4.85952363 5.35056328,4.8050819 5.56155148,4.7025535 L5.47173321,5.34123765 C5.2243093,5.46134841 4.95951487,5.48443848 4.69535595,5.48443848 C3.89419393,5.48443848 3.37646787,4.94997741 3.37646787,4.14966274 C3.37646787,3.06548844 4.092472,2.24123635 5.20545593,2.24123635 C5.50605057,2.24123635 5.79584159,2.2939834 6.01360852,2.36219444 L5.81575413,3.02333316 Z M6.69826099,0.899999619 L7.5053544,0.899999619 L6.96941048,3.43927225 L6.98233245,3.43927225 L8.1067555,2.31273084 L9.15428226,2.31273084 L7.66783226,3.72779226 L8.60054415,5.41230848 L7.69282886,5.41230848 L6.8908195,3.76994753 L6.87980405,3.76994753 L6.53091091,5.41230848 L5.74267087,5.41230848 L6.69826099,0.899999619 Z M12.0629537,2.31266729 L12.6461369,2.31266729 L12.7851011,1.67567782 L13.6519321,1.39224187 L13.4525949,2.31266729 L14.1753777,2.31266729 L14.0503947,2.90241744 L13.3263409,2.90241744 L13.0306185,4.25710572 C13.0140953,4.32976531 12.9954538,4.43737777 12.9954538,4.55897137 C12.9954538,4.74517481 13.1219196,4.85935417 13.3024035,4.85935417 C13.446028,4.85935417 13.5904998,4.82884985 13.6928164,4.7886011 L13.5546996,5.41224493 C13.4170065,5.44338475 13.2600363,5.48448085 13.1219196,5.48448085 C12.5741129,5.48448085 12.1892077,5.27052695 12.1892077,4.67293889 C12.1892077,4.43271739 12.2370825,4.19779177 12.2908887,3.95079153 L12.5200948,2.90241744 L11.935005,2.90241744 L12.0629537,2.31266729 Z M11.7923973,3.42065191 C11.7923973,2.63156451 11.2880169,2.24136345 10.5224433,2.24136345 C9.50563268,2.24136345 8.75806506,3.16835578 8.75806506,4.13136015 C8.75806506,5.05263291 9.35946616,5.48435375 10.2517175,5.48435375 C10.5826046,5.48435375 10.9253545,5.40703377 11.2378119,5.31149594 L11.340764,4.67302362 C11.0395338,4.81219957 10.7209332,4.89502727 10.3898342,4.89502727 C9.87401469,4.89502727 9.57342006,4.71284871 9.53338314,4.22499145 L9.53274763,4.22499145 C9.53274763,4.19681733 9.52829909,4.1686432 9.52829909,4.13898622 L9.52829909,4.12182755 L9.52829909,4.11123577 L9.53084111,4.11123577 C9.53274763,3.90109491 9.57935145,3.69201323 9.66154364,3.49881922 C9.81597175,3.10332226 10.0354334,2.8317491 10.5105805,2.8317491 C10.8471872,2.8317491 11.0217397,3.01774071 11.0217397,3.34841599 C11.0217397,3.42065191 11.0158083,3.48695643 11.0041573,3.55982786 L9.90049413,3.55982786 C9.82783454,3.80259139 9.81597175,3.96528108 9.81470074,4.11123577 L11.71423,4.11123577 C11.7616812,3.88393623 11.7923973,3.65536568 11.7923973,3.42065191 Z M14.5241014,2.65609507 C14.546556,2.53513698 14.570917,2.41100135 14.5893467,2.31249782 L15.3419984,2.31249782 L15.2693388,2.72790732 L15.2812016,2.72790732 C15.4989685,2.41100135 15.8525221,2.24110925 16.2329787,2.24110925 C16.5992423,2.24110925 16.9792753,2.457817 17.0207951,2.83170673 L17.0328697,2.83170673 C17.2366555,2.42773636 17.6891362,2.24110925 18.1221281,2.24110925 C18.5860479,2.24110925 18.983875,2.62071854 18.983875,3.09056977 C18.983875,3.3661678 18.9124865,3.67926073 18.8457583,3.93198053 L18.5205907,5.4122873 L17.7132855,5.4122873 L18.0380293,3.90232356 C18.0797609,3.71506094 18.1399222,3.42738828 18.1399222,3.24054933 C18.1399222,3.01113144 17.9668526,2.8666596 17.761584,2.8666596 C17.20255,2.8666596 17.063374,3.51657104 16.9608456,3.93897111 L16.6418213,5.4122873 L15.8359989,5.4122873 L16.1592599,3.90232356 C16.202898,3.71506094 16.2626357,3.42738828 16.2626357,3.24054933 C16.2626357,3.01113144 16.0878713,2.8666596 15.8834501,2.8666596 C15.3371262,2.8666596 15.1841809,3.5222906 15.0827117,3.93897111 L14.7643229,5.4122873 L13.956594,5.4122873 L14.5241014,2.65609507 Z M24.4088985,2.94482691 C24.3218341,2.89779942 24.0994068,2.83170673 23.8697771,2.83170673 C23.6306147,2.83170673 23.3304438,2.89779942 23.3304438,3.14352865 C23.3304438,3.53521257 24.3775468,3.67926073 24.3775468,4.43742014 C24.3775468,5.24408988 23.6719227,5.48452321 22.9781613,5.48452321 C22.6561712,5.48452321 22.3290972,5.43770756 22.0352813,5.29895528 L22.2094101,4.6547634 C22.4377688,4.78186473 22.6657038,4.8949849 22.9781613,4.8949849 C23.2503699,4.8949849 23.5338059,4.80516663 23.5338059,4.55329418 C23.5338059,4.05251496 22.4854318,4.00485196 22.4854318,3.22911021 C22.4854318,2.49954861 23.1902086,2.24132108 23.8303756,2.24132108 C24.1237679,2.24132108 24.4252098,2.29406813 24.5840865,2.33728258 L24.4088985,2.94482691 Z M24.9242732,2.31266729 L25.509363,2.31266729 L25.6464206,1.67567782 L26.5132516,1.39224187 L26.3145498,2.31266729 L27.0377564,2.31266729 L26.9108669,2.90241744 L26.1866012,2.90241744 L25.8936326,4.25710572 C25.8743556,4.32976531 25.8565614,4.43737777 25.8565614,4.55897137 C25.8565614,4.74517481 25.9847219,4.85935417 26.1647821,4.85935417 C26.3077711,4.85935417 26.4530903,4.82884985 26.555195,4.7886011 L26.4179256,5.41224493 C26.2774786,5.44338475 26.1217795,5.48448085 25.9847219,5.48448085 C25.4364915,5.48448085 25.0515864,5.27052695 25.0515864,4.67293889 C25.0515864,4.43271739 25.0990375,4.19779177 25.1515727,3.95079153 L25.3807788,2.90241744 L24.7978074,2.90241744 L24.9242732,2.31266729 Z M30.3929772,2.72790732 C30.4183974,2.59529827 30.4414875,2.457817 30.4647894,2.31270966 L31.2350234,2.31270966 L31.1259281,2.89779942 L31.1401211,2.89779942 C31.2833219,2.5597099 31.6811491,2.24132108 32.0541915,2.24132108 C32.1573554,2.24132108 32.264756,2.24746431 32.360082,2.27055439 L32.1918846,3.05964178 C32.10249,3.02934929 31.9885224,3.01113144 31.885994,3.01113144 C31.3142499,3.01113144 31.0367454,3.5222906 30.9333696,4.02285798 L30.6463325,5.4122873 L29.8383917,5.4122873 L30.3929772,2.72790732 Z M29.8331594,3.42065191 C29.8331594,2.63156451 29.3275079,2.24136345 28.5629935,2.24136345 C27.5453355,2.24136345 26.7994626,3.16835578 26.7994626,4.13136015 C26.7994626,5.05263291 27.4023465,5.48435375 28.2916321,5.48435375 C28.6225193,5.48435375 28.9661165,5.40703377 29.2794213,5.31149594 L29.3800431,4.67302362 C29.0811432,4.81219957 28.7621189,4.89502727 28.4308081,4.89502727 C27.913082,4.89502727 27.6133347,4.71284871 27.5754162,4.22499145 L27.5739333,4.22499145 C27.571815,4.19681733 27.5699084,4.1686432 27.5699084,4.13898622 C27.5699084,4.13369034 27.570544,4.12839445 27.570544,4.12182755 L27.570544,4.11123577 C27.5739333,3.90109491 27.6205371,3.69201323 27.7027293,3.49881922 C27.8560983,3.10332226 28.0751362,2.8317491 28.5515543,2.8317491 C28.8890084,2.8317491 29.0631372,3.01774071 29.0631372,3.34841599 C29.0631372,3.42065191 29.0550874,3.48695643 29.044072,3.55982786 L27.9423153,3.55982786 C27.8685966,3.80259139 27.8560983,3.96528108 27.8550391,4.11123577 L29.7552039,4.11123577 C29.8039261,3.88393623 29.8331594,3.65536568 29.8331594,3.42065191 Z M33.501579,2.12964138 C33.8847895,2.12964138 34.2000008,2.44061596 34.2000008,2.82509747 C34.2000008,3.21042631 33.8847895,3.52182456 33.501579,3.52182456 C33.1173093,3.52182456 32.8050637,3.21042631 32.8050637,2.82509747 C32.8050637,2.44061596 33.1173093,2.12964138 33.501579,2.12964138 Z M33.5045447,3.41760147 C33.8237808,3.41760147 34.0663325,3.16043313 34.0663325,2.82509747 C34.0663325,2.49103282 33.8237808,2.23216979 33.5045447,2.23216979 C33.1798008,2.23216979 32.9378846,2.49103282 32.9378846,2.82509747 C32.9378846,3.16043313 33.1798008,3.41760147 33.5045447,3.41760147 L33.5045447,3.41760147 Z M33.2344544,2.41540753 L33.547971,2.41540753 C33.7375638,2.41540753 33.8278057,2.49103282 33.8278057,2.64524909 C33.8278057,2.7770108 33.7451899,2.87191312 33.6178767,2.87191312 L33.8502603,3.23160987 L33.7098133,3.23160987 L33.4799718,2.87191312 L33.3689699,2.87191312 L33.3689699,3.23160987 L33.2344544,3.23160987 L33.2344544,2.41540753 Z M33.3689699,2.76853738 L33.5261519,2.76853738 C33.6288921,2.76853738 33.6954085,2.74565914 33.6954085,2.64080054 C33.6954085,2.54780474 33.6132163,2.52026612 33.5261519,2.52026612 L33.3689699,2.52026612 L33.3689699,2.76853738 Z" id="Fill-2"></path>
                </g>
            </g>
        </g>
    </g>
</svg>