<?xml version="1.0" encoding="utf-8"?>
<!-- Generator: Adobe Illustrator 18.1.1, SVG Export Plug-In . SVG Version: 6.00 Build 0)  -->
<!DOCTYPE svg PUBLIC "-//W3C//DTD SVG 1.1//EN" "http://www.w3.org/Graphics/SVG/1.1/DTD/svg11.dtd">
<svg version="1.1" id="Layer_1" xmlns="http://www.w3.org/2000/svg" xmlns:xlink="http://www.w3.org/1999/xlink" x="0px" y="0px"
	 viewBox="0 0 329.1 326.5" enable-background="new 0 0 329.1 326.5" xml:space="preserve">
<polygon fill="none" stroke="#009CDE" stroke-miterlimit="10" stroke-dasharray="3" points="73.9,253.6 36.7,163.1 74.4,72.8 
	164.9,35.6 255.2,73.3 292.4,163.7 254.7,254.1 164.2,291.3 "/>
<circle fill="#FFFFFF" stroke="#768692" stroke-miterlimit="10" stroke-dasharray="3" cx="164.6" cy="36.7" r="36.2"/>
<circle fill="#FFFFFF" stroke="#768692" stroke-miterlimit="10" stroke-dasharray="3" cx="76.4" cy="72.1" r="36.2"/>
<circle fill="#FFFFFF" stroke="#768692" stroke-miterlimit="10" stroke-dasharray="3" cx="250" cy="72.1" r="36.2"/>
<circle fill="#FFFFFF" stroke="#768692" stroke-miterlimit="10" stroke-dasharray="3" cx="36.7" cy="162.4" r="36.2"/>
<circle fill="#FFFFFF" stroke="#768692" stroke-miterlimit="10" stroke-dasharray="3" cx="292.4" cy="162.4" r="36.2"/>
<circle fill="#FFFFFF" stroke="#768692" stroke-miterlimit="10" stroke-dasharray="3" cx="256.2" cy="255.9" r="36.2"/>
<circle fill="#FFFFFF" stroke="#768692" stroke-miterlimit="10" stroke-dasharray="3" cx="164.6" cy="289.8" r="36.2"/>
<circle fill="#FFFFFF" stroke="#768692" stroke-miterlimit="10" stroke-dasharray="3" cx="72.9" cy="256.9" r="36.2"/>
<g>
	<g>
		<path fill="#009CDE" d="M144,40.2h-1.2v-5.9h2.2c1.5,0,2,0.9,2,1.8c0,1.4-0.8,2.1-2.3,2.1H144V40.2z M144.5,37.3
			c0.6,0,1.2-0.2,1.2-1c0-0.8-0.4-0.9-1.1-0.9H144v2H144.5z"/>
		<path fill="#009CDE" d="M149.4,39.1h2.5v1.1h-3.8v-5.9h1.2V39.1z"/>
		<path fill="#009CDE" d="M156.2,34.3l2.1,5.9h-1.4l-0.5-1.4h-2l-0.5,1.4h-1.3l1.9-5.9H156.2z M155.4,35.5L155.4,35.5l-0.8,2.3h1.5
			L155.4,35.5z"/>
		<path fill="#009CDE" d="M162.8,40.2l-2.3-4.1v4.1h-1.1v-5.9h1.5l2.2,4.2v-4.2h1.1v5.9H162.8z"/>
		<path fill="#009CDE" d="M169.2,40.2L167,36v4.1h-1.1v-5.9h1.5l2.2,4.2v-4.2h1.1v5.9H169.2z"/>
		<path fill="#009CDE" d="M173.5,40.2h-1.2v-5.9h1.2V40.2z"/>
		<path fill="#009CDE" d="M178.5,40.2l-2.3-4.1v4.1h-1.1v-5.9h1.5l2.2,4.2v-4.2h1.1v5.9H178.5z"/>
		<path fill="#009CDE" d="M185.4,39.5c-0.3,0.5-1,0.8-1.7,0.8c-1.8,0-2.5-1.2-2.5-2.9c0-1.9,1-3.1,2.8-3.1c1.3,0,2.2,0.6,2.3,2.1
			l-1.2,0.1c-0.1-0.6-0.3-1.1-1.2-1.1c-1,0-1.5,0.7-1.5,2c0,1.4,0.5,2,1.5,2c0.8,0,1.2-0.5,1.2-1V38h-1.1v-0.9h2.3v3.1h-0.9
			L185.4,39.5z"/>
	</g>
</g>
<g>
	<g>
		<path fill="#009CDE" d="M136.6,292.1h2.6v1.1h-3.9v-5.9h3.7v1h-2.5v1.4h2.3v1h-2.3V292.1z"/>
		<path fill="#009CDE" d="M143.8,293.2l-2.3-4.1v4.1h-1.1v-5.9h1.5l2.2,4.2v-4.2h1.1v5.9H143.8z"/>
		<path fill="#009CDE" d="M150.8,292.4c-0.3,0.5-1,0.8-1.7,0.8c-1.8,0-2.5-1.2-2.5-2.9c0-1.9,1-3.1,2.8-3.1c1.3,0,2.2,0.6,2.3,2
			l-1.2,0.1c-0.1-0.6-0.3-1.1-1.2-1.1c-1,0-1.5,0.7-1.5,2c0,1.4,0.5,2,1.5,2c0.8,0,1.2-0.5,1.2-1V291h-1.1v-0.9h2.3v3.1h-0.9
			L150.8,292.4z"/>
		<path fill="#009CDE" d="M156.3,287.3l2.1,5.9H157l-0.5-1.4h-2l-0.5,1.4h-1.3l1.9-5.9H156.3z M155.5,288.5L155.5,288.5l-0.8,2.3
			h1.5L155.5,288.5z"/>
		<path fill="#009CDE" d="M163.1,292.4c-0.3,0.5-1,0.8-1.7,0.8c-1.8,0-2.5-1.2-2.5-2.9c0-1.9,1-3.1,2.8-3.1c1.3,0,2.2,0.6,2.3,2
			l-1.2,0.1c-0.1-0.6-0.3-1.1-1.2-1.1c-1,0-1.5,0.7-1.5,2c0,1.4,0.5,2,1.5,2c0.8,0,1.2-0.5,1.2-1V291h-1.1v-0.9h2.3v3.1h-0.9
			L163.1,292.4z"/>
		<path fill="#009CDE" d="M166.9,292.1h2.6v1.1h-3.9v-5.9h3.7v1h-2.5v1.4h2.3v1h-2.3V292.1z"/>
		<path fill="#009CDE" d="M177,293.2h-1.2v-4.6h0l-1.4,4.6h-1.1l-1.3-4.6h0v4.6h-1.1v-5.9h1.9l1.2,4.3h0l1.2-4.3h1.9V293.2z"/>
		<path fill="#009CDE" d="M179.8,292.1h2.6v1.1h-3.9v-5.9h3.7v1h-2.5v1.4h2.3v1h-2.3V292.1z"/>
		<path fill="#009CDE" d="M187.1,293.2l-2.3-4.1v4.1h-1.1v-5.9h1.5l2.2,4.2v-4.2h1.1v5.9H187.1z"/>
		<path fill="#009CDE" d="M191.4,293.2v-4.8h-1.7v-1.1h4.7v1.1h-1.7v4.8H191.4z"/>
	</g>
</g>
<g>
	<g>
		<path fill="#009CDE" d="M64.6,67.8h2.6v1.1h-3.9V63h3.7v1h-2.5v1.4h2.3v1h-2.3V67.8z"/>
		<path fill="#009CDE" d="M69.8,68.8L67.9,63h1.4l1.3,4.6h0L72,63h1.3l-1.8,5.9H69.8z"/>
		<path fill="#009CDE" d="M75.5,67.8h2.6v1.1h-3.9V63H78v1h-2.5v1.4h2.3v1h-2.3V67.8z"/>
		<path fill="#009CDE" d="M82.8,68.8l-2.3-4.1v4.1h-1.1V63h1.5l2.2,4.2V63h1.1v5.9H82.8z"/>
		<path fill="#009CDE" d="M87,68.8V64h-1.7V63H90V64h-1.7v4.8H87z"/>
		<path fill="#009CDE" d="M55.2,75.7c0-1.9,1-3.1,2.8-3.1c1.3,0,2.2,0.6,2.3,2.1l-1.1,0.1c-0.1-0.8-0.4-1.2-1.2-1.2
			c-1,0-1.5,0.6-1.5,2c0,1.4,0.5,2,1.4,2c0.8,0,1.1-0.4,1.3-1.1l1.1,0.2c-0.2,1.4-1.4,1.9-2.4,1.9C56,78.7,55.2,77.5,55.2,75.7z"/>
		<path fill="#009CDE" d="M66.1,78.6h-1.3l-1.2-2.2h-0.8v2.2h-1.2v-5.9h2.3c1.5,0,1.9,0.8,1.9,1.7c0,0.9-0.4,1.4-1,1.7L66.1,78.6z
			 M63.4,75.3c0.6,0,1.1-0.2,1.1-0.9c0-0.6-0.3-0.8-1-0.8h-0.7v1.7H63.4z"/>
		<path fill="#009CDE" d="M68.4,77.5H71v1.1h-3.9v-5.9h3.7v1h-2.5v1.4h2.3v1h-2.3V77.5z"/>
		<path fill="#009CDE" d="M75.3,72.7l2.1,5.9H76l-0.5-1.4h-2l-0.5,1.4h-1.3l1.9-5.9H75.3z M74.5,73.9L74.5,73.9l-0.8,2.3h1.5
			L74.5,73.9z"/>
		<path fill="#009CDE" d="M79,78.6v-4.8h-1.7v-1.1h4.7v1.1h-1.7v4.8H79z"/>
		<path fill="#009CDE" d="M84.3,78.6H83v-5.9h1.2V78.6z"/>
		<path fill="#009CDE" d="M85.6,75.6c0-1.7,1-3.1,2.9-3.1c1.9,0,2.7,1.3,2.7,2.9c0,1.9-0.9,3.1-2.8,3.1
			C86.4,78.7,85.6,77.4,85.6,75.6z M89.8,75.6c0-1.4-0.5-2-1.4-2c-0.9,0-1.5,0.6-1.5,2c0,1.4,0.6,2,1.5,2
			C89.2,77.6,89.8,77.1,89.8,75.6z"/>
		<path fill="#009CDE" d="M95.8,78.6l-2.3-4.1v4.1h-1.1v-5.9h1.5l2.2,4.2v-4.2h1.1v5.9H95.8z"/>
	</g>
</g>
<g>
	<g>
		<path fill="#009CDE" d="M64,255.5c0,1.2,3,0.5,3,2.6c0,1.3-1.1,1.9-2.2,1.9c-1.1,0-2.2-0.3-2.3-1.9l1.1-0.2c0.1,0.6,0.3,1,1.2,1
			c0.5,0,1-0.2,1-0.7c0-1.2-3.1-0.4-3.1-2.6c0-1.1,1-1.8,2.1-1.8c1,0,2,0.3,2.1,1.7l-1.1,0.1c0-0.6-0.3-0.9-1-0.9
			C64.3,254.9,64,255.1,64,255.5z"/>
		<path fill="#009CDE" d="M71.1,254l2.1,5.9h-1.4l-0.5-1.4h-2l-0.5,1.4h-1.3l1.9-5.9H71.1z M70.3,255.2L70.3,255.2l-0.8,2.3H71
			L70.3,255.2z"/>
		<path fill="#009CDE" d="M75.5,258.8H78v1.1h-3.8V254h1.2V258.8z"/>
		<path fill="#009CDE" d="M80.5,258.8h2.6v1.1h-3.9V254H83v1h-2.5v1.4h2.3v1h-2.3V258.8z"/>
	</g>
</g>
<g>
	<g>
		<path fill="#009CDE" d="M249.3,68.3H248l-1.2-2.2H246v2.2h-1.2v-5.9h2.3c1.5,0,1.9,0.8,1.9,1.7c0,0.9-0.4,1.4-1,1.7L249.3,68.3z
			 M246.7,65.1c0.6,0,1.1-0.2,1.1-0.9c0-0.6-0.3-0.8-1-0.8H246v1.7H246.7z"/>
		<path fill="#009CDE" d="M251.6,67.3h2.6v1.1h-3.9v-5.9h3.7v1h-2.5v1.4h2.3v1h-2.3V67.3z"/>
		<path fill="#009CDE" d="M255.1,66.5v-1h2.2v1H255.1z"/>
		<path fill="#009CDE" d="M222.8,77h2.6V78h-3.9v-5.9h3.7v1h-2.5v1.4h2.3v1h-2.3V77z"/>
		<path fill="#009CDE" d="M230.1,78l-2.3-4.1V78h-1.1v-5.9h1.5l2.2,4.2v-4.2h1.1V78H230.1z"/>
		<path fill="#009CDE" d="M237,77.3c-0.3,0.5-1,0.8-1.7,0.8c-1.8,0-2.5-1.2-2.5-2.9c0-1.9,1-3.1,2.8-3.1c1.3,0,2.2,0.6,2.3,2
			l-1.2,0.1c-0.1-0.6-0.3-1.1-1.2-1.1c-1,0-1.5,0.7-1.5,2c0,1.4,0.5,2,1.5,2c0.8,0,1.2-0.5,1.2-1v-0.2h-1.1V75h2.3V78h-0.9L237,77.3
			z"/>
		<path fill="#009CDE" d="M242.6,72.2l2.1,5.9h-1.4l-0.5-1.4h-2l-0.5,1.4h-1.3l1.9-5.9H242.6z M241.8,73.3L241.8,73.3l-0.8,2.3h1.5
			L241.8,73.3z"/>
		<path fill="#009CDE" d="M249.4,77.3c-0.3,0.5-1,0.8-1.7,0.8c-1.8,0-2.5-1.2-2.5-2.9c0-1.9,1-3.1,2.8-3.1c1.3,0,2.2,0.6,2.3,2
			l-1.2,0.1c-0.1-0.6-0.3-1.1-1.2-1.1c-1,0-1.5,0.7-1.5,2c0,1.4,0.5,2,1.5,2c0.8,0,1.2-0.5,1.2-1v-0.2h-1.1V75h2.3V78h-0.9
			L249.4,77.3z"/>
		<path fill="#009CDE" d="M253.2,77h2.6V78h-3.9v-5.9h3.7v1h-2.5v1.4h2.3v1h-2.3V77z"/>
		<path fill="#009CDE" d="M263.3,78h-1.2v-4.6h0l-1.4,4.6h-1.1l-1.3-4.6h0V78H257v-5.9h1.9l1.2,4.3h0l1.2-4.3h1.9V78z"/>
		<path fill="#009CDE" d="M266.1,77h2.6V78h-3.9v-5.9h3.7v1h-2.5v1.4h2.3v1h-2.3V77z"/>
		<path fill="#009CDE" d="M273.4,78l-2.3-4.1V78H270v-5.9h1.5l2.2,4.2v-4.2h1.1V78H273.4z"/>
		<path fill="#009CDE" d="M277.6,78v-4.8h-1.7v-1.1h4.7v1.1h-1.7V78H277.6z"/>
	</g>
</g>
<g>
	<g>
		<path fill="#009CDE" d="M244.4,258.8h2.6v1.1h-3.9V254h3.7v1h-2.5v1.4h2.3v1h-2.3V258.8z"/>
		<path fill="#009CDE" d="M249.6,259.9l-1.9-5.9h1.4l1.3,4.6h0l1.3-4.6h1.3l-1.8,5.9H249.6z"/>
		<path fill="#009CDE" d="M255.3,258.8h2.6v1.1H254V254h3.7v1h-2.5v1.4h2.3v1h-2.3V258.8z"/>
		<path fill="#009CDE" d="M262.6,259.9l-2.3-4.1v4.1h-1.1V254h1.5l2.2,4.2V254h1.1v5.9H262.6z"/>
		<path fill="#009CDE" d="M266.8,259.9v-4.8h-1.7V254h4.7v1.1h-1.7v4.8H266.8z"/>
	</g>
</g>
<g>
	<g>
		<path fill="#009CDE" d="M18,165.7h-1.2v-4.6h0l-1.4,4.6h-1.1l-1.3-4.6h0v4.6h-1.1v-5.9h1.9l1.2,4.3h0l1.2-4.3H18V165.7z"/>
		<path fill="#009CDE" d="M22.6,159.8l2.1,5.9h-1.4l-0.5-1.4h-2l-0.5,1.4h-1.3l1.9-5.9H22.6z M21.8,161L21.8,161l-0.8,2.3h1.5
			L21.8,161z"/>
		<path fill="#009CDE" d="M30.3,165.7h-1.3l-1.2-2.2H27v2.2h-1.2v-5.9H28c1.5,0,1.9,0.8,1.9,1.7c0,0.9-0.4,1.4-1,1.7L30.3,165.7z
			 M27.6,162.4c0.6,0,1.1-0.2,1.1-0.9c0-0.6-0.3-0.8-1-0.8H27v1.7H27.6z"/>
		<path fill="#009CDE" d="M32.6,162.3l2.3-2.5h1.3l-2.1,2.4l2.1,3.4h-1.5l-1.5-2.5l-0.6,0.6v1.8h-1.2v-5.9h1.2V162.3z"/>
		<path fill="#009CDE" d="M38.4,164.6h2.6v1.1h-3.9v-5.9h3.7v1h-2.5v1.4h2.3v1h-2.3V164.6z"/>
		<path fill="#009CDE" d="M43.5,165.7v-4.8h-1.7v-1.1h4.7v1.1h-1.7v4.8H43.5z"/>
		<path fill="#009CDE" d="M48.8,165.7h-1.2v-5.9h1.2V165.7z"/>
		<path fill="#009CDE" d="M53.8,165.7l-2.3-4.1v4.1h-1.1v-5.9h1.5l2.2,4.2v-4.2h1.1v5.9H53.8z"/>
		<path fill="#009CDE" d="M60.7,164.9c-0.3,0.5-1,0.8-1.7,0.8c-1.8,0-2.5-1.2-2.5-2.9c0-1.9,1-3.1,2.8-3.1c1.3,0,2.2,0.6,2.3,2
			l-1.2,0.1c-0.1-0.6-0.3-1.1-1.2-1.1c-1,0-1.5,0.7-1.5,2c0,1.4,0.5,2,1.5,2c0.8,0,1.2-0.5,1.2-1v-0.2h-1.1v-0.9h2.3v3.1h-0.9
			L60.7,164.9z"/>
	</g>
</g>
<g>
	<g>
		<path fill="#009CDE" d="M275.5,159.8l2.1,5.9h-1.4l-0.5-1.4h-2l-0.5,1.4H272l1.9-5.9H275.5z M274.7,161L274.7,161l-0.8,2.3h1.5
			L274.7,161z"/>
		<path fill="#009CDE" d="M282,165.7l-2.3-4.1v4.1h-1.1v-5.9h1.5l2.2,4.2v-4.2h1.1v5.9H282z"/>
		<path fill="#009CDE" d="M288.1,159.8l2.1,5.9h-1.4l-0.5-1.4h-2l-0.5,1.4h-1.3l1.9-5.9H288.1z M287.3,161L287.3,161l-0.8,2.3h1.5
			L287.3,161z"/>
		<path fill="#009CDE" d="M292.5,164.6h2.5v1.1h-3.8v-5.9h1.2V164.6z"/>
		<path fill="#009CDE" d="M298,165.7h-1.3v-2.2l-2-3.7h1.4l1.3,2.5h0l1.2-2.5h1.3l-1.9,3.7V165.7z"/>
		<path fill="#009CDE" d="M301.6,161.3c0,1.2,3,0.5,3,2.6c0,1.3-1.1,1.9-2.2,1.9c-1.1,0-2.2-0.3-2.3-1.9l1.1-0.2
			c0.1,0.6,0.3,1,1.2,1c0.5,0,1-0.2,1-0.7c0-1.2-3.1-0.4-3.1-2.6c0-1.1,1-1.8,2.1-1.8c1,0,2,0.3,2.1,1.7l-1.1,0.1
			c0-0.6-0.3-0.9-1-0.9C301.8,160.6,301.6,160.9,301.6,161.3z"/>
		<path fill="#009CDE" d="M307.1,165.7h-1.2v-5.9h1.2V165.7z"/>
		<path fill="#009CDE" d="M309.7,161.3c0,1.2,3,0.5,3,2.6c0,1.3-1.1,1.9-2.2,1.9c-1.1,0-2.2-0.3-2.3-1.9l1.1-0.2
			c0.1,0.6,0.3,1,1.2,1c0.5,0,1-0.2,1-0.7c0-1.2-3.1-0.4-3.1-2.6c0-1.1,1-1.8,2.1-1.8c1,0,2,0.3,2.1,1.7l-1.1,0.1
			c0-0.6-0.3-0.9-1-0.9C309.9,160.6,309.7,160.9,309.7,161.3z"/>
	</g>
</g>
<path fill="#009CDE" d="M123.2,48.4l-7.4,7.3c0,0-0.1,0.1,0,0.2c0,0.1,0.1,0.1,0.2,0.1l10.4,0.1c0.1,0,0.1,0,0.2-0.1c0,0,0,0,0,0
	c0-0.1,0-0.1-0.1-0.2L123,53l0.5-4.4c0-0.1,0-0.1-0.1-0.2C123.4,48.4,123.3,48.4,123.2,48.4z"/>
<path fill="#009CDE" d="M276.3,214.8l-0.9-10.4c0-0.1-0.1-0.1-0.1-0.1c-0.1,0-0.1,0-0.2,0.1l-6.7,7.9c0,0.1-0.1,0.1,0,0.2
	c0,0,0,0,0,0c0,0.1,0.1,0.1,0.2,0.1l4.4-0.9l3.1,3.3c0,0.1,0.1,0.1,0.2,0C276.3,214.9,276.3,214.8,276.3,214.8z"/>
<path fill="#009CDE" d="M278.6,118.2l-7.8-6.9c-0.1,0-0.1-0.1-0.2,0c-0.1,0-0.1,0.1-0.1,0.2l0.6,10.4c0,0.1,0,0.1,0.1,0.1
	c0,0,0,0,0,0c0.1,0,0.1,0,0.2-0.1l2.6-3.7l4.5,0.2c0.1,0,0.1,0,0.2-0.1C278.6,118.3,278.6,118.2,278.6,118.2z"/>
<path fill="#009CDE" d="M213.5,51.2l-10.4-0.7c-0.1,0-0.1,0-0.2,0.1c0,0.1,0,0.1,0,0.2l6.8,7.9c0,0.1,0.1,0.1,0.2,0c0,0,0,0,0,0
	c0.1,0,0.1-0.1,0.1-0.2l-0.2-4.5l3.7-2.5c0.1,0,0.1-0.1,0.1-0.2C213.6,51.2,213.6,51.2,213.5,51.2z"/>
<path fill="#009CDE" d="M53.9,111.4l0.5,10.4c0,0.1,0,0.1,0.1,0.1c0.1,0,0.1,0,0.2,0l7-7.6c0,0,0.1-0.1,0-0.2c0,0,0,0,0,0
	c0-0.1-0.1-0.1-0.2-0.1l-4.4,0.7l-2.9-3.4c0-0.1-0.1-0.1-0.2,0C54,111.3,53.9,111.3,53.9,111.4z"/>
<path fill="#009CDE" d="M50.1,205.9l7.2,7.5c0,0,0.1,0.1,0.2,0c0.1,0,0.1-0.1,0.1-0.2l0.2-10.4c0-0.1,0-0.1-0.1-0.2c0,0,0,0,0,0
	c-0.1,0-0.1,0-0.2,0.1l-2.8,3.5l-4.4-0.6c-0.1,0-0.1,0-0.2,0.1C50.1,205.8,50.1,205.9,50.1,205.9z"/>
<path fill="#009CDE" d="M112.4,274l10.4,0c0.1,0,0.1,0,0.2-0.1c0-0.1,0-0.1,0-0.2l-7.3-7.3c0,0-0.1-0.1-0.2,0c0,0,0,0,0,0
	c-0.1,0-0.1,0.1-0.1,0.2l0.5,4.4l-3.5,2.8c-0.1,0-0.1,0.1-0.1,0.2C112.3,273.9,112.3,274,112.4,274z"/>
<path fill="#009CDE" d="M208.2,278.1l6.6-8c0-0.1,0-0.1,0-0.2c0-0.1-0.1-0.1-0.2-0.1l-10.3,1c-0.1,0-0.1,0.1-0.1,0.1c0,0,0,0,0,0
	c0,0.1,0,0.1,0.1,0.2l3.7,2.4l-0.1,4.5c0,0.1,0,0.1,0.1,0.2C208,278.1,208.1,278.1,208.2,278.1z"/>
<g>
	<path fill="#009CDE" d="M97,152.3h7.4v3.1H93.3V138H97V152.3z"/>
	<path fill="#009CDE" d="M111.8,155.4h-3.7V138h3.7V155.4z"/>
	<path fill="#009CDE" d="M120.4,155.4l-5.6-17.4h4.2l4,13.7h0.1l4-13.7h3.8l-5.4,17.4H120.4z"/>
	<path fill="#009CDE" d="M137.4,152.3h7.8v3.1h-11.4V138h11v3.1h-7.3v4.1h6.9v3h-6.9V152.3z"/>
	<path fill="#009CDE" d="M157.9,152.3h7.8v3.1h-11.4V138h11v3.1h-7.3v4.1h6.9v3h-6.9V152.3z"/>
	<path fill="#009CDE" d="M173.2,155.4l-5.6-17.4h4.2l4,13.7h0.1l4-13.7h3.8l-5.4,17.4H173.2z"/>
	<path fill="#009CDE" d="M190.2,152.3h7.8v3.1h-11.4V138h11v3.1h-7.3v4.1h6.9v3h-6.9V152.3z"/>
	<path fill="#009CDE" d="M211.8,155.4l-6.7-12.3v12.3h-3.4V138h4.4l6.6,12.3V138h3.4v17.4H211.8z"/>
	<path fill="#009CDE" d="M224.3,155.4v-14.3h-5.1V138h13.9v3.1H228v14.3H224.3z"/>
	<path fill="#009CDE" d="M101.5,181.1h7.4v3.1H97.9v-17.4h3.7V181.1z"/>
	<path fill="#009CDE" d="M116.4,184.2h-3.7v-17.4h3.7V184.2z"/>
	<path fill="#009CDE" d="M124.8,184.2h-3.7v-17.4h10.9v3.1h-7.2v4.4h6.7v3h-6.7V184.2z"/>
	<path fill="#009CDE" d="M139.3,181.1h7.8v3.1h-11.4v-17.4h11v3.1h-7.3v4.1h6.9v3h-6.9V181.1z"/>
	<path fill="#009CDE" d="M149.9,175.7c0-5.5,2.9-9.2,8.4-9.2c3.9,0,6.6,1.9,6.8,6.2l-3.4,0.3c-0.2-2.5-1.3-3.5-3.5-3.5
		c-2.8,0-4.5,1.8-4.5,6c0,4.3,1.5,5.9,4.2,5.9c2.5,0,3.4-1.3,3.8-3.1l3.3,0.6c-0.6,4.2-4,5.6-7.2,5.6
		C152.2,184.5,149.9,181.1,149.9,175.7z"/>
	<path fill="#009CDE" d="M176.2,184.2h-3.7v-6.5l-6-10.9h4.1l3.8,7.4h0.1l3.7-7.4h3.7l-5.7,10.8V184.2z"/>
	<path fill="#009CDE" d="M182.9,175.7c0-5.5,2.9-9.2,8.4-9.2c3.9,0,6.6,1.9,6.8,6.2l-3.4,0.3c-0.2-2.5-1.3-3.5-3.5-3.5
		c-2.8,0-4.5,1.8-4.5,6c0,4.3,1.5,5.9,4.2,5.9c2.5,0,3.4-1.3,3.8-3.1l3.3,0.6c-0.6,4.2-4,5.6-7.2,5.6
		C185.2,184.5,182.9,181.1,182.9,175.7z"/>
	<path fill="#009CDE" d="M205.4,181.1h7.4v3.1h-11.1v-17.4h3.7V181.1z"/>
	<path fill="#009CDE" d="M220.2,181.1h7.8v3.1h-11.4v-17.4h11v3.1h-7.3v4.1h6.9v3h-6.9V181.1z"/>
</g>
</svg>
