<?xml version="1.0" encoding="utf-8"?>
<!-- Generator: Adobe Illustrator 18.1.1, SVG Export Plug-In . SVG Version: 6.00 Build 0)  -->
<!DOCTYPE svg PUBLIC "-//W3C//DTD SVG 1.1//EN" "http://www.w3.org/Graphics/SVG/1.1/DTD/svg11.dtd">
<svg version="1.1" id="Icons" xmlns="http://www.w3.org/2000/svg" xmlns:xlink="http://www.w3.org/1999/xlink" x="0px" y="0px"
	 viewBox="0 0 42.3 60" enable-background="new 0 0 42.3 60" xml:space="preserve">
<path fill="#009CDE" d="M42.2,24.6c-0.2-0.3-0.5-0.6-0.9-0.6H22.4l4.8-22.8c0.1-0.5-0.1-0.9-0.6-1.1c-0.4-0.2-0.9,0-1.2,0.3
	l-25.2,36c-0.2,0.3-0.2,0.7-0.1,1C0.3,37.8,0.6,38,1,38h18.9l-4.8,20.8c-0.1,0.5,0.1,0.9,0.6,1.1C15.8,60,16,60,16.1,60
	c0.3,0,0.6-0.1,0.8-0.4l25.2-34C42.4,25.3,42.4,24.9,42.2,24.6z"/>
</svg>
