<?xml version="1.0" encoding="utf-8"?>
<!-- Generator: Adobe Illustrator 18.1.1, SVG Export Plug-In . SVG Version: 6.00 Build 0)  -->
<!DOCTYPE svg PUBLIC "-//W3C//DTD SVG 1.1//EN" "http://www.w3.org/Graphics/SVG/1.1/DTD/svg11.dtd">
<svg version="1.1" id="Layer_1" xmlns:sketch="http://www.bohemiancoding.com/sketch/ns"
	 xmlns="http://www.w3.org/2000/svg" xmlns:xlink="http://www.w3.org/1999/xlink" x="0px" y="0px" viewBox="391 -456 784 912"
	 enable-background="new 391 -456 784 912" xml:space="preserve">
<title>Shape</title>
<desc>Created with Sketch.</desc>
<g>
	<path fill="#009CDE" d="M1029.2-202.3c-0.9-20.8-5.4-41.4-13.3-60.6c-13.2-32.2-36.2-59.9-63.6-81.2c-16-12-32.7-23-49.9-33.2
		c14.3-21.1,28.8-42.2,43.4-63.2c3.4-3.2,3-9,0.1-12.4c-3.3-2.6-8.9-3.8-12.1-0.4c-16.3,22.8-31.9,46.1-48.3,68.8
		c-14.2-4.5-29-7.1-43.5-10.6c-19.4-4.1-39.2-6.7-59-7.9c-35.1-0.7-70.2,5.8-103.1,18.1c-15.6-22.2-31-44.5-46.5-66.7
		c-1.4-1.8-2.9-4.1-5.5-3.8c-7.2-1.3-13,8.1-8.6,13.9c14.7,21.3,29.2,42.8,44,63.9c-11.7,7.1-24,13.5-35.3,21.3
		c-24.8,16.7-46.3,38.3-62.9,63.2c-17.8,26.9-27.7,58.6-29.8,90.7C699.9-202.2,864.6-202.5,1029.2-202.3z M888-326
		c14.4,0,26,11.6,26,26s-11.6,26-26,26s-26-11.6-26-26S873.6-326,888-326z M676-326c14.4,0,26,11.6,26,26c0,14.4-11.6,26-26,26
		c-14.4,0-26-11.6-26-26C650-314.4,661.6-326,676-326z"/>
	<path fill="#009CDE" d="M472.7-163.9c-10.3-5.6-22.6-6.8-34.1-5.3c-21.3,2.9-40,19.3-45.4,40.1c-2.7,9.4-1.8,19.3-1.9,29
		c0,70.7-0.1,141.3,0,212c0.2,29,26.8,54.6,55.7,53.6c28.6,1.2,55.1-23.9,56-52.4V-117C502.5-136.7,490-155,472.7-163.9z"/>
	<path fill="#009CDE" d="M1030.4-169.8c-165.2,0.1-330.4,0-495.6,0c-0.1,130,0,259.9-0.1,389.9c0.1,8-0.6,16.3,1.7,24.1
		c3.9,15.1,16.1,27.7,31.2,31.9c5.6,1.9,11.5,1.3,17.3,1.4h41.5c-0.1,40.5,0.6,81.1,0.2,121.6c-1.6,26.4,18.6,52.2,44.6,56.9h23.5
		c23.5-5.1,43.1-26.6,43.7-51c0.2-42.5-0.1-85,0.1-127.5c29.5,0.1,58.9-0.1,88.3,0.1c-0.2,40.4,0,80.9-0.1,121.4
		c-0.3,11.8,2.9,23.8,9.7,33.5c8.3,11.7,20.9,20.3,34.9,23.5h21.4c26-3.8,46.6-28.9,46-55c-0.1-41.2,0-82.3-0.1-123.4
		c12.8-0.3,25.5,0,38.3-0.1c6.7-0.1,13.6,0.8,20.1-1.5c13.5-3.1,24.9-13.3,30.1-26.1c2.7-6.6,3.5-13.8,3.4-20.9
		C1030.4,96.1,1030.6-36.9,1030.4-169.8z"/>
	<path fill="#009CDE" d="M1174.1,105.9v-224c-0.9-19.5-13.7-37.5-31-46.1c-10.6-5.3-22.8-6.6-34.4-5c-25.2,3.6-45.8,26.8-46.3,52.2
		v226c-1.2,25.6,18.4,50.1,43.3,55.3c13.6,2.8,28.4,1.2,40.5-6.1c14-8.4,24.8-22.8,27.4-39.1C1174.4,114.7,1174,110.3,1174.1,105.9z
		"/>
</g>
</svg>
