<?xml version="1.0" encoding="utf-8"?>
<!-- Generator: Adobe Illustrator 18.1.1, SVG Export Plug-In . SVG Version: 6.00 Build 0)  -->
<!DOCTYPE svg PUBLIC "-//W3C//DTD SVG 1.1//EN" "http://www.w3.org/Graphics/SVG/1.1/DTD/svg11.dtd">
<svg version="1.1" id="Layer_1" xmlns="http://www.w3.org/2000/svg" xmlns:xlink="http://www.w3.org/1999/xlink" x="0px" y="0px"
	 viewBox="0 0 301.2 334.6" enable-background="new 0 0 301.2 334.6" xml:space="preserve">
<polygon fill="none" stroke="#009CDE" stroke-miterlimit="10" stroke-dasharray="3" points="42.5,104.9 150.6,42.5 258.7,104.9 
	258.7,229.7 150.6,292.1 42.5,229.7 "/>
<circle fill="#FFFFFF" stroke="#768692" stroke-miterlimit="10" stroke-dasharray="3" cx="42.5" cy="108.7" r="42"/>
<circle fill="#FFFFFF" stroke="#768692" stroke-miterlimit="10" stroke-dasharray="3" cx="258.7" cy="108.7" r="42"/>
<circle fill="#FFFFFF" stroke="#768692" stroke-miterlimit="10" stroke-dasharray="3" cx="42.5" cy="230.5" r="42"/>
<circle fill="#FFFFFF" stroke="#768692" stroke-miterlimit="10" stroke-dasharray="3" cx="150.6" cy="292.1" r="42"/>
<circle fill="#FFFFFF" stroke="#768692" stroke-miterlimit="10" stroke-dasharray="3" cx="150.6" cy="42.5" r="42"/>
<circle fill="#FFFFFF" stroke="#768692" stroke-miterlimit="10" stroke-dasharray="3" cx="258.7" cy="230.5" r="42"/>
<g>
	<path fill="#009CDE" d="M127.2,43.5v-5.9h2.1c2,0,2.9,1.1,2.9,2.8c0,1.8-0.9,3-3,3H127.2z M129,42.5c1.4,0,1.8-0.7,1.8-2
		c0-1.5-0.6-1.9-1.7-1.9h-0.7v3.9H129z"/>
	<path fill="#009CDE" d="M134.7,43.5h-1.2v-5.9h1.2V43.5z"/>
	<path fill="#009CDE" d="M137.3,39.1c0,1.2,3,0.5,3,2.6c0,1.3-1.1,1.9-2.2,1.9c-1.1,0-2.2-0.3-2.3-1.9l1.1-0.2c0.1,0.6,0.3,1,1.2,1
		c0.5,0,1-0.2,1-0.7c0-1.2-3.1-0.4-3.1-2.6c0-1.1,1-1.8,2.1-1.8c1,0,2,0.3,2.1,1.7l-1.1,0.1c0-0.6-0.3-0.9-1-0.9
		C137.5,38.5,137.3,38.7,137.3,39.1z"/>
	<path fill="#009CDE" d="M141.3,40.6c0-1.9,1-3.1,2.8-3.1c1.3,0,2.2,0.6,2.3,2.1l-1.1,0.1c-0.1-0.8-0.4-1.2-1.2-1.2
		c-1,0-1.5,0.6-1.5,2c0,1.4,0.5,2,1.4,2c0.8,0,1.1-0.4,1.3-1.1l1.1,0.2c-0.2,1.4-1.4,1.9-2.4,1.9C142,43.6,141.3,42.5,141.3,40.6z"
		/>
	<path fill="#009CDE" d="M147.3,40.6c0-1.7,1-3.1,2.9-3.1c1.9,0,2.7,1.3,2.7,2.9c0,1.9-0.9,3.1-2.8,3.1
		C148.1,43.6,147.3,42.3,147.3,40.6z M151.6,40.6c0-1.4-0.5-2-1.4-2c-0.9,0-1.5,0.6-1.5,2c0,1.4,0.6,2,1.5,2
		C150.9,42.5,151.6,42,151.6,40.6z"/>
	<path fill="#009CDE" d="M155.3,43.5l-1.9-5.9h1.4l1.3,4.6h0l1.3-4.6h1.3l-1.8,5.9H155.3z"/>
	<path fill="#009CDE" d="M161,42.5h2.6v1.1h-3.9v-5.9h3.7v1H161v1.4h2.3v1H161V42.5z"/>
	<path fill="#009CDE" d="M169.4,43.5h-1.3l-1.2-2.2h-0.8v2.2h-1.2v-5.9h2.3c1.5,0,1.9,0.8,1.9,1.7c0,0.9-0.4,1.4-1,1.7L169.4,43.5z
		 M166.8,40.3c0.6,0,1.1-0.2,1.1-0.9c0-0.6-0.3-0.8-1-0.8h-0.7v1.7H166.8z"/>
	<path fill="#009CDE" d="M172.8,43.5h-1.3v-2.2l-2-3.7h1.4l1.3,2.5h0l1.2-2.5h1.3l-1.9,3.7V43.5z"/>
</g>
<g>
	<path fill="#009CDE" d="M131,159.7h-3.7v-17.4h10.9v3.1H131v4.4h6.7v3H131V159.7z"/>
	<path fill="#009CDE" d="M149.1,142.3l6.1,17.4h-4.1l-1.4-4.2h-5.8l-1.3,4.2h-3.8l5.7-17.4H149.1z M146.8,145.8L146.8,145.8
		l-2.2,6.7h4.4L146.8,145.8z"/>
	<path fill="#009CDE" d="M168.5,159.7l-6.7-12.3v12.3h-3.4v-17.4h4.4l6.6,12.3v-12.3h3.4v17.4H168.5z"/>
	<path fill="#009CDE" d="M89.2,185.4h7.4v3.1H85.5v-17.4h3.7V185.4z"/>
	<path fill="#009CDE" d="M104,188.5h-3.7v-17.4h3.7V188.5z"/>
	<path fill="#009CDE" d="M112.4,188.5h-3.7v-17.4h10.9v3.1h-7.2v4.4h6.7v3h-6.7V188.5z"/>
	<path fill="#009CDE" d="M126.9,185.4h7.8v3.1h-11.4v-17.4h11v3.1h-7.3v4.1h6.9v3h-6.9V185.4z"/>
	<path fill="#009CDE" d="M137.5,180c0-5.5,2.9-9.2,8.4-9.2c3.9,0,6.6,1.9,6.8,6.2l-3.4,0.3c-0.2-2.5-1.3-3.5-3.5-3.5
		c-2.8,0-4.5,1.8-4.5,6c0,4.3,1.5,5.9,4.2,5.9c2.5,0,3.4-1.3,3.8-3.1l3.3,0.6c-0.6,4.2-4,5.6-7.2,5.6
		C139.8,188.8,137.5,185.4,137.5,180z"/>
	<path fill="#009CDE" d="M163.8,188.5h-3.7V182l-6-10.9h4.1l3.8,7.4h0.1l3.7-7.4h3.7l-5.7,10.8V188.5z"/>
	<path fill="#009CDE" d="M170.5,180c0-5.5,2.9-9.2,8.4-9.2c3.9,0,6.6,1.9,6.8,6.2l-3.4,0.3c-0.2-2.5-1.3-3.5-3.5-3.5
		c-2.8,0-4.5,1.8-4.5,6c0,4.3,1.5,5.9,4.2,5.9c2.5,0,3.4-1.3,3.8-3.1l3.3,0.6c-0.6,4.2-4,5.6-7.2,5.6
		C172.8,188.8,170.5,185.4,170.5,180z"/>
	<path fill="#009CDE" d="M193,185.4h7.4v3.1h-11.1v-17.4h3.7V185.4z"/>
	<path fill="#009CDE" d="M207.8,185.4h7.8v3.1h-11.4v-17.4h11v3.1h-7.3v4.1h6.9v3h-6.9V185.4z"/>
</g>
<g>
	<path fill="#009CDE" d="M14.5,107.7h2.6v1.1h-3.9v-5.9H17v1h-2.5v1.4h2.3v1h-2.3V107.7z"/>
	<path fill="#009CDE" d="M21.8,108.7l-2.3-4.1v4.1h-1.1v-5.9h1.5l2.2,4.2v-4.2h1.1v5.9H21.8z"/>
	<path fill="#009CDE" d="M28.7,108c-0.3,0.5-1,0.8-1.7,0.8c-1.8,0-2.5-1.2-2.5-2.9c0-1.9,1-3.1,2.8-3.1c1.3,0,2.2,0.6,2.3,2.1
		l-1.2,0.1c-0.1-0.6-0.3-1.1-1.2-1.1c-1,0-1.5,0.7-1.5,2c0,1.4,0.5,2,1.5,2c0.8,0,1.2-0.5,1.2-1v-0.2h-1.1v-0.9h2.3v3.1h-0.9
		L28.7,108z"/>
	<path fill="#009CDE" d="M34.2,102.9l2.1,5.9h-1.4l-0.5-1.4h-2l-0.5,1.4h-1.3l1.9-5.9H34.2z M33.5,104L33.5,104l-0.8,2.3h1.5
		L33.5,104z"/>
	<path fill="#009CDE" d="M41.1,108c-0.3,0.5-1,0.8-1.7,0.8c-1.8,0-2.5-1.2-2.5-2.9c0-1.9,1-3.1,2.8-3.1c1.3,0,2.2,0.6,2.3,2.1
		l-1.2,0.1c-0.1-0.6-0.3-1.1-1.2-1.1c-1,0-1.5,0.7-1.5,2c0,1.4,0.5,2,1.5,2c0.8,0,1.2-0.5,1.2-1v-0.2h-1.1v-0.9h2.3v3.1h-0.9
		L41.1,108z"/>
	<path fill="#009CDE" d="M44.8,107.7h2.6v1.1h-3.9v-5.9h3.7v1h-2.5v1.4h2.3v1h-2.3V107.7z"/>
	<path fill="#009CDE" d="M54.9,108.7h-1.2v-4.6h0l-1.4,4.6h-1.1l-1.3-4.6h0v4.6h-1.1v-5.9h1.9l1.2,4.3h0l1.2-4.3h1.9V108.7z"/>
	<path fill="#009CDE" d="M57.8,107.7h2.6v1.1h-3.9v-5.9h3.7v1h-2.5v1.4h2.3v1h-2.3V107.7z"/>
	<path fill="#009CDE" d="M65.1,108.7l-2.3-4.1v4.1h-1.1v-5.9h1.5l2.2,4.2v-4.2h1.1v5.9H65.1z"/>
	<path fill="#009CDE" d="M69.3,108.7v-4.8h-1.7v-1.1h4.7v1.1h-1.7v4.8H69.3z"/>
</g>
<g>
	<path fill="#009CDE" d="M25.3,234.4H24l-1.2-2.2H22v2.2h-1.2v-5.9h2.3c1.5,0,1.9,0.8,1.9,1.7c0,0.9-0.4,1.4-1,1.7L25.3,234.4z
		 M22.7,231.2c0.6,0,1.1-0.2,1.1-0.9c0-0.6-0.3-0.8-1-0.8H22v1.7H22.7z"/>
	<path fill="#009CDE" d="M27.6,233.4h2.6v1.1h-3.9v-5.9h3.7v1h-2.5v1.4H30v1h-2.3V233.4z"/>
	<path fill="#009CDE" d="M32.4,230.1c0,1.2,3,0.5,3,2.6c0,1.3-1.1,1.9-2.2,1.9c-1.1,0-2.2-0.3-2.3-1.9l1.1-0.2c0.1,0.6,0.3,1,1.2,1
		c0.5,0,1-0.2,1-0.7c0-1.2-3.1-0.4-3.1-2.6c0-1.1,1-1.8,2.1-1.8c1,0,2,0.3,2.1,1.7l-1.1,0.1c0-0.6-0.3-0.9-1-0.9
		C32.7,229.4,32.4,229.7,32.4,230.1z"/>
	<path fill="#009CDE" d="M38,233.4h2.6v1.1h-3.9v-5.9h3.7v1H38v1.4h2.3v1H38V233.4z"/>
	<path fill="#009CDE" d="M44.8,228.6l2.1,5.9h-1.4l-0.5-1.4h-2l-0.5,1.4h-1.3l1.9-5.9H44.8z M44.1,229.7L44.1,229.7l-0.8,2.3h1.5
		L44.1,229.7z"/>
	<path fill="#009CDE" d="M52.6,234.4h-1.3l-1.2-2.2h-0.8v2.2H48v-5.9h2.3c1.5,0,1.9,0.8,1.9,1.7c0,0.9-0.4,1.4-1,1.7L52.6,234.4z
		 M49.9,231.2c0.6,0,1.1-0.2,1.1-0.9c0-0.6-0.3-0.8-1-0.8h-0.7v1.7H49.9z"/>
	<path fill="#009CDE" d="M53.2,231.6c0-1.9,1-3.1,2.8-3.1c1.3,0,2.2,0.6,2.3,2.1l-1.1,0.1c-0.1-0.8-0.4-1.2-1.2-1.2
		c-1,0-1.5,0.6-1.5,2c0,1.4,0.5,2,1.4,2c0.8,0,1.1-0.4,1.3-1.1l1.1,0.2c-0.2,1.4-1.4,1.9-2.4,1.9C54,234.5,53.2,233.4,53.2,231.6z"
		/>
	<path fill="#009CDE" d="M64.3,234.4h-1.3V232h-2.2v2.4h-1.2v-5.9h1.2v2.4h2.2v-2.4h1.3V234.4z"/>
</g>
<g>
	<path fill="#009CDE" d="M129.7,295.9h-1.2V290h2.2c1.5,0,2,0.9,2,1.8c0,1.4-0.8,2.1-2.3,2.1h-0.6V295.9z M130.2,293
		c0.6,0,1.2-0.2,1.2-1c0-0.8-0.4-0.9-1.1-0.9h-0.6v2H130.2z"/>
	<path fill="#009CDE" d="M137.2,293.6V290h1.2v3.8c0,1.6-0.9,2.2-2.4,2.2c-1.6,0-2.3-0.7-2.3-2.2V290h1.3v3.5c0,0.9,0.2,1.4,1.1,1.4
		C137,294.9,137.2,294.5,137.2,293.6z"/>
	<path fill="#009CDE" d="M144.5,295.9h-1.3l-1.2-2.2h-0.8v2.2H140V290h2.3c1.5,0,1.9,0.8,1.9,1.7c0,0.9-0.4,1.4-1,1.7L144.5,295.9z
		 M141.9,292.7c0.6,0,1.1-0.2,1.1-0.9c0-0.6-0.3-0.8-1-0.8h-0.7v1.7H141.9z"/>
	<path fill="#009CDE" d="M145.2,293c0-1.9,1-3.1,2.8-3.1c1.3,0,2.2,0.6,2.3,2.1l-1.1,0.1c-0.1-0.8-0.4-1.2-1.2-1.2
		c-1,0-1.5,0.6-1.5,2c0,1.4,0.5,2,1.4,2c0.8,0,1.1-0.4,1.3-1.1l1.1,0.2c-0.2,1.4-1.4,1.9-2.4,1.9C146,296,145.2,294.8,145.2,293z"/>
	<path fill="#009CDE" d="M156.3,295.9h-1.3v-2.4h-2.2v2.4h-1.2V290h1.2v2.4h2.2V290h1.3V295.9z"/>
	<path fill="#009CDE" d="M160.9,290l2.1,5.9h-1.4l-0.5-1.4h-2l-0.5,1.4h-1.3l1.9-5.9H160.9z M160.1,291.2L160.1,291.2l-0.8,2.3h1.5
		L160.1,291.2z"/>
	<path fill="#009CDE" d="M165,291.5c0,1.2,3,0.5,3,2.6c0,1.3-1.1,1.9-2.2,1.9c-1.1,0-2.2-0.3-2.3-1.9l1.1-0.2c0.1,0.6,0.3,1,1.2,1
		c0.5,0,1-0.2,1-0.7c0-1.2-3.1-0.4-3.1-2.6c0-1.1,1-1.8,2.1-1.8c1,0,2,0.3,2.1,1.7l-1.1,0.1c0-0.6-0.3-0.9-1-0.9
		C165.2,290.9,165,291.1,165,291.5z"/>
	<path fill="#009CDE" d="M170.5,294.8h2.6v1.1h-3.9V290h3.7v1h-2.5v1.4h2.3v1h-2.3V294.8z"/>
</g>
<g>
	<path fill="#009CDE" d="M246.9,233.4h2.6v1.1h-3.9v-5.9h3.7v1h-2.5v1.4h2.3v1h-2.3V233.4z"/>
	<path fill="#009CDE" d="M252.1,234.4l-1.9-5.9h1.4l1.3,4.6h0l1.3-4.6h1.3l-1.8,5.9H252.1z"/>
	<path fill="#009CDE" d="M257.8,233.4h2.6v1.1h-3.9v-5.9h3.7v1h-2.5v1.4h2.3v1h-2.3V233.4z"/>
	<path fill="#009CDE" d="M265.1,234.4l-2.3-4.1v4.1h-1.1v-5.9h1.5l2.2,4.2v-4.2h1.1v5.9H265.1z"/>
	<path fill="#009CDE" d="M269.3,234.4v-4.8h-1.7v-1.1h4.7v1.1h-1.7v4.8H269.3z"/>
</g>
<g>
	<path fill="#009CDE" d="M227.2,108.7h-1.3l-1.2-2.2h-0.8v2.2h-1.2v-5.9h2.3c1.5,0,1.9,0.8,1.9,1.7c0,0.9-0.4,1.4-1,1.7L227.2,108.7
		z M224.5,105.5c0.6,0,1.1-0.2,1.1-0.9c0-0.6-0.3-0.8-1-0.8h-0.7v1.7H224.5z"/>
	<path fill="#009CDE" d="M229.5,107.7h2.6v1.1h-3.9v-5.9h3.7v1h-2.5v1.4h2.3v1h-2.3V107.7z"/>
	<path fill="#009CDE" d="M232.9,106.9v-1h2.2v1H232.9z"/>
	<path fill="#009CDE" d="M237.6,107.7h2.6v1.1h-3.9v-5.9h3.7v1h-2.5v1.4h2.3v1h-2.3V107.7z"/>
	<path fill="#009CDE" d="M244.8,108.7l-2.3-4.1v4.1h-1.1v-5.9h1.5l2.2,4.2v-4.2h1.1v5.9H244.8z"/>
	<path fill="#009CDE" d="M251.8,108c-0.3,0.5-1,0.8-1.7,0.8c-1.8,0-2.5-1.2-2.5-2.9c0-1.9,1-3.1,2.8-3.1c1.3,0,2.2,0.6,2.3,2.1
		l-1.2,0.1c-0.1-0.6-0.3-1.1-1.2-1.1c-1,0-1.5,0.7-1.5,2c0,1.4,0.5,2,1.5,2c0.8,0,1.2-0.5,1.2-1v-0.2h-1.1v-0.9h2.3v3.1h-0.9
		L251.8,108z"/>
	<path fill="#009CDE" d="M257.3,102.9l2.1,5.9H258l-0.5-1.4h-2l-0.5,1.4h-1.3l1.9-5.9H257.3z M256.5,104L256.5,104l-0.8,2.3h1.5
		L256.5,104z"/>
	<path fill="#009CDE" d="M264.1,108c-0.3,0.5-1,0.8-1.7,0.8c-1.8,0-2.5-1.2-2.5-2.9c0-1.9,1-3.1,2.8-3.1c1.3,0,2.2,0.6,2.3,2.1
		l-1.2,0.1c-0.1-0.6-0.3-1.1-1.2-1.1c-1,0-1.5,0.7-1.5,2c0,1.4,0.5,2,1.5,2c0.8,0,1.2-0.5,1.2-1v-0.2h-1.1v-0.9h2.3v3.1h-0.9
		L264.1,108z"/>
	<path fill="#009CDE" d="M267.9,107.7h2.6v1.1h-3.9v-5.9h3.7v1h-2.5v1.4h2.3v1h-2.3V107.7z"/>
	<path fill="#009CDE" d="M278,108.7h-1.2v-4.6h0l-1.4,4.6h-1.1l-1.3-4.6h0v4.6h-1.1v-5.9h1.9l1.2,4.3h0l1.2-4.3h1.9V108.7z"/>
	<path fill="#009CDE" d="M280.8,107.7h2.6v1.1h-3.9v-5.9h3.7v1h-2.5v1.4h2.3v1h-2.3V107.7z"/>
	<path fill="#009CDE" d="M288.1,108.7l-2.3-4.1v4.1h-1.1v-5.9h1.5l2.2,4.2v-4.2h1.1v5.9H288.1z"/>
	<path fill="#009CDE" d="M292.4,108.7v-4.8h-1.7v-1.1h4.7v1.1h-1.7v4.8H292.4z"/>
</g>
<path fill="#009CDE" d="M262.8,175.7l-4-9.6c0-0.1-0.1-0.1-0.2-0.1c-0.1,0-0.1,0-0.2,0.1l-4,9.6c0,0.1,0,0.1,0,0.2c0,0,0,0,0,0
	c0.1,0,0.1,0.1,0.2,0l3.9-2.2l3.9,2.2c0.1,0,0.1,0,0.2,0C262.9,175.9,262.9,175.8,262.8,175.7z"/>
<path fill="#009CDE" d="M38.4,165l4,9.6c0,0.1,0.1,0.1,0.2,0.1c0.1,0,0.1,0,0.2-0.1l4-9.6c0-0.1,0-0.1,0-0.2c0,0,0,0,0,0
	c-0.1,0-0.1-0.1-0.2,0l-3.9,2.2l-3.9-2.2c-0.1,0-0.1,0-0.2,0C38.4,164.9,38.3,164.9,38.4,165z"/>
<path fill="#009CDE" d="M210.9,72.9l-10.1-2.3c-0.1,0-0.1,0-0.2,0.1c0,0.1,0,0.1,0,0.2l5.5,8.8c0,0.1,0.1,0.1,0.2,0.1c0,0,0,0,0,0
	c0.1,0,0.1-0.1,0.1-0.1l0.5-4.4l4-1.9c0.1,0,0.1-0.1,0.1-0.2C211,73,211,72.9,210.9,72.9z"/>
<path fill="#009CDE" d="M97.2,66.6l-5.1,9c0,0.1,0,0.1,0,0.2c0,0.1,0.1,0.1,0.2,0.1l10-2.7c0.1,0,0.1-0.1,0.1-0.1c0,0,0,0,0,0
	c0-0.1,0-0.1-0.1-0.2L98.2,71l-0.7-4.4c0-0.1-0.1-0.1-0.1-0.1C97.3,66.5,97.3,66.5,97.2,66.6z"/>
<path fill="#009CDE" d="M203.3,267l6.1-8.4c0-0.1,0-0.1,0-0.2c0-0.1-0.1-0.1-0.2-0.1l-10.3,1.7c-0.1,0-0.1,0.1-0.1,0.1c0,0,0,0,0,0
	c0,0.1,0,0.1,0.1,0.2l3.9,2.2l0.2,4.5c0,0.1,0.1,0.1,0.1,0.2C203.1,267.1,203.2,267,203.3,267z"/>
<path fill="#009CDE" d="M89.2,262.4l10.3,1.1c0.1,0,0.1,0,0.2-0.1c0-0.1,0-0.1,0-0.2l-6.5-8.1c0-0.1-0.1-0.1-0.2-0.1c0,0,0,0,0,0
	c-0.1,0-0.1,0.1-0.1,0.2l0,4.5l-3.8,2.4c-0.1,0-0.1,0.1-0.1,0.2C89.1,262.3,89.2,262.4,89.2,262.4z"/>
</svg>
