<?xml version="1.0" encoding="utf-8"?>
<!-- Generator: Adobe Illustrator 18.1.1, SVG Export Plug-In . SVG Version: 6.00 Build 0)  -->
<!DOCTYPE svg PUBLIC "-//W3C//DTD SVG 1.1//EN" "http://www.w3.org/Graphics/SVG/1.1/DTD/svg11.dtd">
<svg version="1.1" id="Layer_1" xmlns="http://www.w3.org/2000/svg" xmlns:xlink="http://www.w3.org/1999/xlink" x="0px" y="0px"
	 viewBox="1.8 14 36.6 12.2" enable-background="new 1.8 14 36.6 12.2" xml:space="preserve">
<g>
	<path fill="#0099D9" d="M1.8,17.3v-3h10.4v3H8.8v8.7H5.3v-8.7H1.8z"/>
	<path fill="#0099D9" d="M13.6,25.9V14.2h2.7l3.9,5.5l3.9-5.5h2.7v11.7h-3.5v-5.2L21,24v0h-1.8v-0.1L17,20.7l0,5.2H13.6z"/>
	<path fill="#0099D9" d="M27.8,22h3.5c0.2,0.9,0.9,1.3,2,1.3c0.8,0,1.3-0.2,1.3-0.7c0-0.3-0.3-0.6-0.9-0.7l-2-0.5
		c-1.2-0.3-2-0.7-2.6-1.3c-0.5-0.5-0.8-1.3-0.8-2.2c0-1.2,0.4-2.1,1.3-2.9c0.9-0.7,2.1-1.1,3.5-1.1c1.1,0,2.1,0.2,3.1,0.7
		c0.5,0.3,1,0.7,1.4,1.2c0.4,0.5,0.6,1.2,0.7,2h-3.5c-0.2-0.8-0.7-1.2-1.5-1.2c-0.3,0-0.6,0.1-0.9,0.2c-0.2,0.1-0.3,0.3-0.3,0.6
		c0,0.2,0.1,0.4,0.2,0.5s0.4,0.2,0.7,0.3l1.9,0.5c1.1,0.3,1.9,0.7,2.5,1.2c0.6,0.5,0.9,1.3,0.9,2.3c0,1.2-0.5,2.2-1.4,2.9
		c-0.9,0.7-2.1,1.1-3.5,1.1c0,0,0,0,0,0c-1.4,0-2.6-0.3-3.6-0.9c-0.5-0.3-1-0.7-1.3-1.3S27.9,22.8,27.8,22z"/>
</g>
</svg>
